<?xml version="1.0" standalone="no"?>
<!DOCTYPE svg PUBLIC "-//W3C//DTD SVG 20010904//EN"
 "http://www.w3.org/TR/2001/REC-SVG-20010904/DTD/svg10.dtd">
<svg version="1.0" xmlns="http://www.w3.org/2000/svg"
 width="700.000000pt" height="700.000000pt" viewBox="0 0 700.000000 700.000000"
 preserveAspectRatio="xMidYMid meet">
<metadata>
Created by potrace 1.14, written by Peter Selinger 2001-2017
</metadata>
<g transform="translate(0.000000,700.000000) scale(0.100000,-0.100000)"
fill="#000000" stroke="none">
<path d="M3421 5283 c23 -49 52 -113 66 -143 14 -30 40 -86 58 -125 47 -100
71 -154 270 -585 62 -135 127 -274 143 -310 17 -36 47 -101 67 -145 20 -44 91
-197 157 -340 67 -143 144 -312 173 -375 29 -63 69 -151 90 -195 20 -44 62
-134 92 -200 30 -66 85 -183 120 -260 36 -77 118 -255 183 -395 65 -140 131
-284 148 -320 67 -145 76 -165 77 -170 1 -3 24 -54 53 -114 29 -60 52 -110 52
-112 0 -1 22 -49 48 -106 27 -57 73 -156 102 -220 30 -65 58 -118 62 -118 5 0
7 3 5 8 -3 4 -8 43 -12 87 -4 44 -8 91 -11 105 -2 14 -6 54 -9 90 -3 36 -7 83
-10 105 -2 22 -7 67 -10 100 -3 33 -8 74 -10 90 -2 17 -7 65 -10 108 -4 43 -8
86 -10 95 -1 10 -6 51 -9 92 -7 75 -11 111 -20 185 -6 49 -14 130 -21 210 -3
33 -7 76 -10 95 -2 19 -7 64 -10 100 -11 115 -24 244 -30 285 -2 17 -6 64 -10
105 -4 41 -9 86 -10 100 -13 114 -22 203 -30 295 -3 39 -8 81 -10 95 -2 14 -7
59 -10 100 -4 41 -8 87 -10 103 -2 15 -7 62 -10 105 -4 42 -9 85 -11 95 -2 10
-6 53 -9 95 -4 42 -8 88 -10 102 -2 14 -7 52 -10 85 -4 33 -8 74 -10 91 -2 17
-7 66 -10 110 -4 43 -8 89 -10 102 -2 13 -7 53 -10 90 -3 37 -8 81 -10 97 -2
17 -7 66 -10 110 -4 44 -8 87 -10 95 -2 8 -6 45 -10 82 -5 50 -12 69 -24 72
-9 3 -158 44 -331 91 -173 47 -328 91 -345 96 -16 5 -145 41 -285 79 -140 38
-277 76 -305 84 -155 45 -305 86 -314 86 -6 0 8 -39 30 -87z"/>
<path d="M3128 5240 c-58 -90 -348 -583 -348 -591 0 -5 -4 -9 -10 -9 -5 0 -10
-4 -10 -9 0 -4 -25 -48 -55 -97 -30 -49 -61 -102 -70 -119 -8 -16 -33 -59 -55
-94 -22 -34 -40 -64 -40 -66 0 -2 -165 -280 -270 -455 -65 -109 -355 -596
-503 -845 -104 -176 -198 -332 -208 -347 -11 -15 -19 -30 -19 -33 0 -3 -11
-22 -24 -43 -54 -84 -367 -614 -364 -616 2 -2 138 -37 303 -78 609 -154 1507
-381 1755 -445 140 -35 262 -66 270 -68 8 -2 247 -62 530 -133 283 -72 658
-167 833 -211 175 -45 323 -84 328 -87 12 -7 2 16 -89 211 -38 83 -86 186
-107 230 -20 44 -61 131 -91 193 -30 63 -54 115 -54 117 0 2 -25 56 -56 121
-31 66 -85 181 -120 256 -35 75 -81 174 -102 220 -22 46 -54 115 -72 153 -18
39 -59 124 -90 191 -32 67 -64 137 -71 158 -7 20 -17 36 -21 36 -4 0 -8 8 -8
18 0 10 -4 22 -9 28 -4 5 -33 63 -63 129 -31 66 -153 329 -273 585 -119 256
-230 492 -245 525 -15 33 -47 101 -70 150 -23 50 -73 155 -110 235 -37 80 -86
183 -108 230 -40 86 -83 178 -142 305 -18 39 -52 111 -75 160 -23 50 -44 97
-47 105 -3 11 -8 9 -20 -10z"/>
</g>
</svg>
